<?xml version="1.0" encoding="UTF-8" standalone="no"?>
<!-- Created with Inkscape (http://www.inkscape.org/) -->

<svg
   width="210mm"
   height="297mm"
   viewBox="0 0 210 297"
   version="1.1"
   id="svg5"
   xml:space="preserve"
   inkscape:version="1.2.1 (9c6d41e410, 2022-07-14)"
   sodipodi:docname="ODBR logo v4 hexagonal.svg"
   xmlns:inkscape="http://www.inkscape.org/namespaces/inkscape"
   xmlns:sodipodi="http://sodipodi.sourceforge.net/DTD/sodipodi-0.dtd"
   xmlns="http://www.w3.org/2000/svg"
   xmlns:svg="http://www.w3.org/2000/svg"><sodipodi:namedview
     id="namedview7"
     pagecolor="#ffffff"
     bordercolor="#000000"
     borderopacity="0.25"
     inkscape:showpageshadow="2"
     inkscape:pageopacity="0.0"
     inkscape:pagecheckerboard="0"
     inkscape:deskcolor="#d1d1d1"
     inkscape:document-units="mm"
     showgrid="false"
     inkscape:zoom="2.6053829"
     inkscape:cx="448.68645"
     inkscape:cy="530.05645"
     inkscape:window-width="1920"
     inkscape:window-height="1009"
     inkscape:window-x="1358"
     inkscape:window-y="-8"
     inkscape:window-maximized="1"
     inkscape:current-layer="layer2" /><defs
     id="defs2" /><g
     inkscape:groupmode="layer"
     id="layer2"
     inkscape:label="Camada 2"><path
       id="path334"
       style="color:#000000;fill:#112b2c;fill-opacity:1;stroke-width:2.36443;-inkscape-stroke:none"
       d="m 102.53183,126.87584 20.0495,11.74525 v 23.48921 l -20.0495,11.74002 -20.049511,-11.74394 v -23.48529 z"
       inkscape:label="desenho"
       sodipodi:nodetypes="ccccccc" /><g
       id="g279"
       transform="translate(-0.8671953,-0.29617711)"><path
         id="path299"
         style="color:#000000;fill:#5ad8ce;stroke-width:2.36443;-inkscape-stroke:none"
         d="m 103.39902,125.99513 -21.054325,12.33011 v 24.66675 l 21.054325,12.3314 21.05432,-12.3314 v -0.29309 -24.37366 z m 0,1.17623 20.0495,11.74526 v 23.48921 l -20.0495,11.74002 -20.049505,-11.74394 v -23.48529 z m 12.61532,11.23893 c -2.73236,0 -4.95479,2.22243 -4.95479,4.95481 0,1.20456 0.52821,2.66439 1.05847,3.59932 0.65157,1.14886 3.51464,5.99383 3.55093,6.05515 v 6.80747 h -3.53656 v 3.21336 h -8.36702 v -14.65638 h -8.539755 v 14.65638 h -4.05989 v -7.89734 l -4.99926,-0.13754 -0.0201,0.7615 4.25745,0.11767 v 7.91696 h 5.58283 v -14.6564 h 7.016805 v 14.6564 h 9.88998 v -3.21337 h 3.53652 v -7.64482 h -0.0228 c 0.10101,-0.1747 2.80049,-4.83756 3.35991,-5.80655 0.56439,-0.97757 1.20107,-2.47525 1.20107,-3.77203 0,-2.73238 -2.22243,-4.9548 -4.95482,-4.95481 z m 0,0.76147 c 2.32186,0 4.19857,1.87144 4.19857,4.19334 0,1.03107 -0.58827,2.49984 -1.10294,3.39129 -0.51352,0.88944 -2.64509,4.57402 -3.09563,5.35125 -0.44871,-0.75954 -2.65673,-4.49514 -3.2343,-5.5135 -0.46305,-0.81644 -0.95904,-2.26347 -0.95904,-3.22904 0,-2.3219 1.87147,-4.19334 4.19334,-4.19334 z m 0.064,1.37379 c -1.51871,0 -2.75934,1.23668 -2.75934,2.75543 0,1.51876 1.24063,2.75807 2.75934,2.75807 1.51876,0 2.75939,-1.23931 2.75939,-2.75807 0,-1.51875 -1.24063,-2.75543 -2.75939,-2.75543 z m -0.0511,0.75755 c 0.0178,-4.3e-4 0.0337,0 0.0511,0 1.10827,0 1.99789,0.88962 1.99789,1.99788 0,1.10826 -0.88962,1.99657 -1.99789,1.99657 -1.10824,0 -1.99785,-0.88831 -1.99785,-1.99657 0,-1.09094 0.86278,-1.97069 1.94684,-1.99788 z"
         inkscape:label="desenho" /><path
         id="path7385"
         style="font-weight:bold;font-size:11.2889px;font-family:Rockwell;-inkscape-font-specification:'Rockwell Bold';letter-spacing:2.24896px;fill:#5ad8ce;stroke-width:0.181548"
         d="m 108.36662,142.78667 v 0.89264 h -2.72597 v -0.89264 h 0.71652 v -2.0855 h -0.67249 v -0.89665 h 1.80531 v 0.98471 q 0.10407,-0.42431 0.47234,-0.73252 0.37226,-0.31223 0.87663,-0.31223 0.0841,0 0.20014,0.004 v 1.16884 q -0.46833,0 -0.76455,0.10408 -0.29621,0.10407 -0.48835,0.45632 -0.19214,0.35226 -0.19214,0.8326 v 0.47635 z m -7.67753,-4.67537 v 2.12954 q 0.46433,-0.53239 1.10079,-0.53239 0.74454,0 1.20887,0.56441 0.46834,0.56441 0.46834,1.44504 0,0.94068 -0.46834,1.48107 -0.46433,0.53638 -1.17685,0.53638 -0.64046,0 -1.13281,-0.50036 v 0.44432 h -1.909375 v -0.89264 h 0.67248 v -3.78272 h -0.67248 v -0.89265 z m 1.50908,3.5986 q 0,-0.49636 -0.20415,-0.74854 -0.20414,-0.25218 -0.54038,-0.25218 -0.32023,0 -0.5484,0.24817 -0.22817,0.24818 -0.22817,0.80859 0,0.47234 0.21216,0.74053 0.21616,0.26819 0.5524,0.26819 0.32423,0 0.54039,-0.26019 0.21615,-0.26018 0.21615,-0.80457 z m -5.311815,1.07677 v 0.89264 h -1.87335 v -0.46033 q -0.51637,0.51637 -1.12081,0.51637 -0.72452,0 -1.20087,-0.58842 -0.47634,-0.58842 -0.47634,-1.42502 0,-0.84862 0.48836,-1.42903 0.48834,-0.58443 1.19285,-0.58443 0.67649,0 1.11681,0.52438 v -1.22888 h -0.60444 v -0.89265 h 1.84133 v 4.67537 z m -1.86134,-1.05276 q 0,-0.5564 -0.24018,-0.79256 -0.23617,-0.23618 -0.54038,-0.23618 -0.36427,0 -0.56442,0.28421 -0.19613,0.2802 -0.19613,0.74053 0,0.43632 0.19613,0.73653 0.19615,0.29622 0.56842,0.29622 0.30822,0 0.54039,-0.24018 0.23617,-0.24417 0.23617,-0.78857 z m -7.10112,2.03347 q -0.85662,0 -1.44904,-0.54039 -0.58843,-0.5444 -0.58843,-1.48907 0,-0.94468 0.58843,-1.48508 0.59242,-0.54439 1.44904,-0.54439 0.86062,0 1.44904,0.54439 0.58843,0.5404 0.58843,1.48508 0,0.93267 -0.58442,1.48106 -0.58042,0.5484 -1.45305,0.5484 z m -0.004,-0.96069 q 0.34425,0 0.5564,-0.26419 0.21616,-0.26419 0.21616,-0.8286 0,-0.49636 -0.20815,-0.77255 -0.20816,-0.28021 -0.56441,-0.28021 -0.76455,0 -0.76455,1.1048 0,0.45232 0.18813,0.74853 0.19214,0.29222 0.57642,0.29222 z"
         inkscape:label="odbr" /></g></g></svg>
